<?xml version="1.0" encoding="UTF-8"?>
<svg width="146px" height="96px" viewBox="0 0 146 96" version="1.1" xmlns="http://www.w3.org/2000/svg" xmlns:xlink="http://www.w3.org/1999/xlink">
    <!-- Generator: Sketch 49.3 (51167) - http://www.bohemiancoding.com/sketch -->
    <title>Rectangle 18</title>
    <desc>Created with Sketch.</desc>
    <defs>
        <linearGradient x1="50%" y1="0%" x2="50%" y2="100%" id="linearGradient-1">
            <stop stop-color="#FFFFFF" stop-opacity="0" offset="0%"></stop>
            <stop stop-color="#FFFFFF" stop-opacity="0.618408203" offset="44.7875977%"></stop>
            <stop stop-color="#FFFFFF" offset="100%"></stop>
        </linearGradient>
    </defs>
    <g id="Phone" stroke="none" stroke-width="1" fill="none" fill-rule="evenodd">
        <g id="普通主页" transform="translate(-14.000000, -80.000000)">
            <g id="Group-4" transform="translate(14.000000, 80.000000)">
                <path d="M2,2 L2,94 L144,94 L144,2 L2,2 Z M0,0 L146,0 L146,96 L0,96 L0,0 Z" id="Rectangle-18" fill="#FFFFFF" fill-rule="nonzero" opacity="0.8"></path>
                <polygon id="Rectangle-2-Copy-2" fill="url(#linearGradient-1)" points="12 12 24.32 12 44 44 31.68 44"></polygon>
                <path d="M12.5747801,52.5847953 C12.9579687,52.1949298 13.4310822,52 13.9941349,52 C14.5571876,52 15.0322561,52.1949298 15.4193548,52.5847953 C15.8064535,52.9746608 16,53.4502896 16,54.0116959 C16,54.5731022 15.8064535,55.0448324 15.4193548,55.4269006 C15.0322561,55.8089688 14.5571876,56 13.9941349,56 C13.4310822,56 12.9579687,55.8089688 12.5747801,55.4269006 C12.1915914,55.0448324 12,54.5731022 12,54.0116959 C12,53.4502896 12.1915914,52.9746608 12.5747801,52.5847953 Z M12,68 L12,57 L15,57 L15,68 L12,68 Z M17,59.6677028 L17,57.0521341 L19.0846238,57.0521341 L19.0846238,55.694687 C19.0846238,54.3924142 19.3076552,53.5600957 20.1325698,52.5935274 C20.9574845,51.626959 22.274514,51.0080485 23.6055212,51.0002234 C24.9365283,50.9923984 25.0315515,51.1906334 25.7736332,51.5113338 L25.7736332,54.0111955 C25.1200722,53.6580367 24.2290334,53.7939926 23.6055212,53.7939926 C22.7341065,53.7939926 22.1045112,54.7051066 22.1045112,55.7277954 L22.1045112,57.0521341 L26,57.0521341 L24.7024486,59.6677028 L22.1045112,59.6677028 L22.1045112,68 L19.0846238,68 L19.0846238,59.6677028 L17,59.6677028 Z M26,62.4947368 C26,60.9298167 26.4857048,59.6228123 27.4571291,58.5736842 C28.4285533,57.5245562 29.6384,57 31.0867052,57 C32.4007773,57 33.4498997,57.4771882 34.234104,58.4315789 L34.234104,57.2842105 L37,57.2842105 L37,67.7263158 L34.234104,67.7263158 L34.234104,66.5684211 C33.4569646,67.5228118 32.4078422,68 31.0867052,68 C29.6384,68 28.4285533,67.4736895 27.4571291,66.4210526 C26.4857048,65.3684158 26,64.0596569 26,62.4947368 L26,62.4947368 Z M29,62.9945155 C29,63.8500957 29.2294899,64.5648966 29.6884766,65.1389397 C30.1474632,65.7129828 30.7512983,66 31.5,66 C32.2421912,66 32.8443987,65.716639 33.3066406,65.1499086 C33.7688825,64.5831782 34,63.864721 34,62.9945155 C34,62.1243101 33.7688825,61.4076811 33.3066406,60.8446069 C32.8443987,60.2815328 32.2421912,60 31.5,60 C30.7512983,60 30.1474632,60.2851891 29.6884766,60.8555759 C29.2294899,61.4259626 29,62.1389354 29,62.9945155 L29,62.9945155 Z M40,68 L40,57.2914622 L42.771855,57.2914622 L42.771855,58.5436703 C43.4612686,57.5145516 44.498927,57 45.8848614,57 C47.0931119,57 48.0810196,57.3868133 48.8486141,58.1604514 C49.6162085,58.9340896 50,59.9398041 50,61.1776251 L50,68 L47.1535181,68 L47.1535181,62.1059863 C47.1535181,61.3359464 46.9722833,60.7440322 46.6098081,60.3302257 C46.2473329,59.9164193 45.7391646,59.7095191 45.0852878,59.7095191 C44.4385184,59.7095191 43.9054747,59.9182184 43.4861407,60.3356232 C43.0668067,60.7530279 42.8571429,61.3503396 42.8571429,62.1275761 L42.8571429,68 L40,68 Z M53,68 L53,57.2914622 L55.6740413,57.2914622 L55.6740413,58.4573111 C56.2935134,57.4857655 57.2571223,57 58.5648968,57 C59.0880065,57 59.5663695,57.0791618 60,57.2374877 L60,59.6429711 C59.6747506,59.6637698 58.9777965,59.4474368 58.2250578,59.4643777 C57.472319,59.4813186 56.7391858,59.9595988 56.350295,60.3734053 C55.9614042,60.7872118 55.7669617,61.3827243 55.7669617,62.1599607 L55.7669617,68 L53,68 Z" id="ifanr" fill="#FFFFFF"></path>
                <path d="M19.26,79.18 L19.26,80.93 L18.44,80.93 L18.44,81.73 L13.98,81.73 C13.91,81.95 13.84,82.16 13.76,82.37 L18.11,82.37 L18.11,83.08 C17.68,83.65 17.16,84.15 16.55,84.57 C17.37,84.87 18.27,85.07 19.24,85.17 L18.82,86.03 C17.66,85.87 16.61,85.57 15.67,85.11 C14.8,85.57 13.87,85.89 12.89,86.07 L12.46,85.22 C13.32,85.1 14.09,84.89 14.75,84.61 C14.21,84.27 13.71,83.89 13.25,83.46 C12.68,84.51 11.94,85.34 11.03,85.94 L10.58,85.12 C11.71,84.32 12.52,83.19 13.01,81.73 L11.59,81.73 L11.59,80.93 L10.76,80.93 L10.76,79.18 L12.24,79.18 C12.15,78.9 12.05,78.63 11.95,78.39 L12.88,78.25 C12.98,78.53 13.08,78.84 13.18,79.18 L14.59,79.18 C14.49,78.87 14.39,78.58 14.27,78.31 L15.19,78.17 C15.31,78.47 15.42,78.81 15.52,79.18 L16.67,79.18 C16.9,78.78 17.1,78.36 17.27,77.93 C15.59,78.08 13.58,78.16 11.24,78.16 L10.94,77.28 C13.95,77.28 16.49,77.15 18.55,76.89 L19.02,77.72 C18.48,77.8 17.9,77.87 17.29,77.93 L18.18,78.25 C18.03,78.59 17.86,78.9 17.68,79.18 L19.26,79.18 Z M11.72,80.85 L13.26,80.85 C13.3,80.63 13.35,80.42 13.39,80.2 L14.33,80.32 C14.29,80.5 14.26,80.68 14.22,80.85 L18.3,80.85 L18.3,80.04 L11.72,80.04 L11.72,80.85 Z M14.03,83.18 C14.51,83.56 15.03,83.89 15.59,84.17 C16.11,83.86 16.56,83.53 16.94,83.18 L14.03,83.18 Z M20.57,77.63 L22.83,77.63 L22.83,76.79 L23.8,76.79 L23.8,77.63 L26.2,77.63 L26.2,76.79 L27.17,76.79 L27.17,77.63 L29.43,77.63 L29.43,78.5 L27.17,78.5 L27.17,79.35 L26.2,79.35 L26.2,78.5 L23.8,78.5 L23.8,79.35 L22.83,79.35 L22.83,78.5 L20.57,78.5 L20.57,77.63 Z M21.97,79.16 C22.6,79.6 23.13,80.03 23.57,80.47 L22.92,81.12 C22.54,80.7 22,80.26 21.31,79.79 L21.97,79.16 Z M21.34,80.86 C21.96,81.29 22.49,81.72 22.93,82.15 L22.29,82.8 C21.91,82.39 21.37,81.95 20.69,81.49 L21.34,80.86 Z M22.34,83.05 L23.15,83.44 C22.78,84.35 22.3,85.23 21.71,86.08 L20.83,85.62 C21.46,84.76 21.96,83.9 22.34,83.05 Z M27.69,80.44 L25.07,80.44 L25.07,84.51 C25.07,84.81 25.24,84.97 25.58,84.97 L27.49,84.97 C27.92,84.97 28.18,84.88 28.27,84.7 C28.38,84.5 28.46,84.1 28.52,83.5 L29.43,83.79 C29.33,84.79 29.18,85.39 28.97,85.59 C28.75,85.77 28.35,85.87 27.77,85.87 L25.17,85.87 C24.45,85.87 24.1,85.53 24.1,84.86 L24.1,79.6 L28.63,79.6 L28.63,82.42 C28.62,82.96 28.31,83.24 27.7,83.27 C27.28,83.27 26.87,83.26 26.47,83.24 L26.25,82.35 C26.66,82.39 27.02,82.41 27.33,82.41 C27.57,82.41 27.69,82.3 27.69,82.09 L27.69,80.44 Z M32.74,77.07 L33.69,77.07 L33.69,80.64 C33.65,83.1 32.85,84.89 31.29,86.03 L30.54,85.38 C31.98,84.39 32.72,82.81 32.74,80.64 L32.74,77.07 Z M38.23,85.75 L36.76,85.75 C36.03,85.75 35.67,85.33 35.67,84.51 L35.67,77.05 L36.63,77.05 L36.63,84.3 C36.63,84.64 36.77,84.82 37.05,84.82 L38.06,84.82 C38.24,84.82 38.37,84.74 38.45,84.59 C38.55,84.42 38.61,83.91 38.64,83.05 L39.54,83.34 C39.46,84.5 39.31,85.2 39.11,85.42 C38.92,85.64 38.63,85.75 38.23,85.75 Z M41.92,83.57 C42.18,83.57 42.39,83.67 42.57,83.88 C42.73,84.1 42.82,84.37 42.82,84.71 C42.82,85.22 42.67,85.66 42.37,86.04 C42.07,86.42 41.67,86.68 41.17,86.82 L41.17,86.2 C41.44,86.1 41.67,85.95 41.85,85.73 C42.02,85.5 42.1,85.27 42.1,85.03 C42.04,85.05 41.96,85.06 41.86,85.06 C41.65,85.06 41.48,84.99 41.34,84.85 C41.2,84.71 41.13,84.53 41.13,84.32 C41.13,84.09 41.2,83.91 41.35,83.77 C41.49,83.63 41.68,83.57 41.92,83.57 Z M55.82,76.8 L56.8,76.8 L56.8,79.92 L59.31,79.92 L59.31,80.84 L56.8,80.84 L56.8,84.76 L59.69,84.76 L59.69,85.69 L53.74,85.69 L53.74,84.76 L55.82,84.76 L55.82,76.8 Z M51.73,76.87 C52.38,77.37 52.93,77.86 53.38,78.36 L52.73,79.02 C52.33,78.55 51.78,78.05 51.07,77.52 L51.73,76.87 Z M50.41,79.78 L52.72,79.78 L52.72,84.04 C53.04,83.78 53.37,83.48 53.71,83.15 L53.96,84.15 C53.32,84.75 52.64,85.28 51.91,85.74 L51.55,84.88 C51.72,84.76 51.81,84.6 51.81,84.42 L51.81,80.69 L50.41,80.69 L50.41,79.78 Z M64.52,76.84 L65.48,76.84 L65.48,78.13 L68.83,78.13 L68.83,79.05 L65.48,79.05 L65.48,80.6 L69.36,80.6 L69.36,81.52 L66.27,81.52 C66.93,82.69 68.04,83.74 69.59,84.67 L68.92,85.53 C67.31,84.33 66.18,83 65.52,81.52 L65.48,81.52 L65.48,86 L64.52,86 L64.52,81.52 L64.48,81.52 C63.77,83.14 62.6,84.48 60.98,85.54 L60.43,84.65 C61.93,83.83 63.03,82.78 63.73,81.52 L60.64,81.52 L60.64,80.6 L64.52,80.6 L64.52,79.05 L61.24,79.05 L61.24,78.13 L64.52,78.13 L64.52,76.84 Z M72.64,79.07 C72.96,79.57 73.26,80.12 73.55,80.72 L72.78,81.11 L74.52,81.11 L74.52,78.82 L71,78.82 L71,77.91 L74.52,77.91 L74.52,76.84 L75.48,76.84 L75.48,77.91 L79.08,77.91 L79.08,78.82 L75.48,78.82 L75.48,81.11 L76.34,81.11 C76.7,80.45 77,79.74 77.26,79 L78.18,79.33 C77.91,79.99 77.61,80.58 77.28,81.11 L79.37,81.11 L79.37,82.02 L76.23,82.02 C76.93,83.06 78.08,84 79.69,84.84 L79.04,85.66 C77.36,84.58 76.18,83.39 75.48,82.07 L75.48,86.01 L74.52,86.01 L74.52,82.04 C73.88,83.44 72.65,84.65 70.83,85.67 L70.31,84.81 C72,83.98 73.15,83.05 73.75,82.02 L70.61,82.02 L70.61,81.11 L72.73,81.11 C72.44,80.5 72.13,79.95 71.81,79.47 L72.64,79.07 Z M85.24,78.49 L86.8,78.49 L86.8,76.84 L87.71,76.84 L87.71,78.49 L89.29,78.49 L89.29,82.69 L87.71,82.69 L87.71,84.63 C87.97,84.57 88.23,84.52 88.48,84.47 C88.37,84.09 88.25,83.73 88.13,83.38 L88.91,83.13 C89.19,83.89 89.44,84.76 89.66,85.74 L88.85,85.94 C88.8,85.7 88.75,85.47 88.69,85.25 C87.62,85.49 86.49,85.71 85.29,85.89 L85.07,85 C85.65,84.94 86.23,84.87 86.8,84.78 L86.8,82.69 L85.24,82.69 L85.24,78.49 Z M88.41,81.83 L88.41,79.35 L87.67,79.35 L87.67,81.83 L88.41,81.83 Z M86.84,81.83 L86.84,79.35 L86.12,79.35 L86.12,81.83 L86.84,81.83 Z M81.66,81.78 L81.66,82.9 L82.41,82.9 L82.41,81.78 L81.66,81.78 Z M81.61,83.69 C81.52,84.62 81.31,85.4 80.97,86.03 L80.28,85.42 C80.65,84.73 80.84,83.86 80.85,82.81 L80.85,79.89 L80.3,79.23 C80.9,78.63 81.41,77.81 81.84,76.76 L82.71,76.96 C82.63,77.14 82.56,77.32 82.48,77.49 L84.26,77.49 L84.26,78.14 C84.08,78.51 83.89,78.84 83.71,79.12 L84.77,79.12 L84.77,85.13 C84.77,85.68 84.51,85.96 83.99,85.96 L83.51,85.96 L83.29,85.2 C83.45,85.22 83.6,85.23 83.74,85.23 C83.9,85.23 83.98,85.1 83.98,84.85 L83.98,83.69 L83.19,83.69 L83.19,85.85 L82.41,85.85 L82.41,83.69 L81.61,83.69 Z M83.98,82.9 L83.98,81.78 L83.19,81.78 L83.19,82.9 L83.98,82.9 Z M83.98,80.98 L83.98,79.93 L83.19,79.93 L83.19,80.98 L83.98,80.98 Z M81.54,79.12 L82.75,79.12 C82.91,78.87 83.08,78.58 83.26,78.26 L82.1,78.26 C81.92,78.57 81.73,78.86 81.54,79.12 Z M82.41,79.93 L81.66,79.93 L81.66,80.98 L82.41,80.98 L82.41,79.93 Z M98.31,76.87 L98.78,77.67 C97.88,77.91 96.84,78.09 95.66,78.21 L95.66,79.66 L98.76,79.66 L98.76,80.58 L95.66,80.58 L95.66,82 L99.51,82 L99.51,82.91 L95.66,82.91 L95.66,84.96 C95.66,85.62 95.31,85.95 94.62,85.95 L93.07,85.95 L92.85,85.03 C93.35,85.06 93.83,85.08 94.29,85.08 C94.57,85.08 94.71,84.96 94.71,84.73 L94.71,82.91 L90.5,82.91 L90.5,82 L94.71,82 L94.71,80.58 L91.33,80.58 L91.33,79.66 L94.71,79.66 L94.71,78.29 C93.69,78.36 92.6,78.4 91.42,78.4 L91.12,77.54 C93.97,77.54 96.37,77.31 98.31,76.87 Z M100.52,77.35 L109.5,77.35 L109.5,78.27 L108.24,78.27 L108.24,84.88 C108.24,85.6 107.89,85.96 107.21,85.96 L105.53,85.96 L105.31,85.04 C105.86,85.07 106.38,85.09 106.88,85.09 C107.15,85.09 107.29,84.94 107.29,84.64 L107.29,78.27 L100.52,78.27 L100.52,77.35 Z M105.68,79.57 L105.68,83.42 L102.53,83.42 L102.53,84.24 L101.62,84.24 L101.62,79.57 L105.68,79.57 Z M102.53,82.56 L104.78,82.56 L104.78,80.42 L102.53,80.42 L102.53,82.56 Z M112.86,78.09 L111.22,78.09 L111.22,77.16 L117.34,77.16 L117.34,77.78 C117.16,78.58 116.97,79.28 116.79,79.88 L118.78,79.88 L118.78,80.44 C118.49,81.77 117.89,82.9 116.98,83.82 C117.7,84.33 118.54,84.79 119.5,85.2 L118.87,86.05 C117.85,85.58 116.97,85.06 116.24,84.48 C115.37,85.15 114.31,85.69 113.05,86.1 L112.5,85.22 C113.67,84.83 114.65,84.36 115.45,83.8 C114.66,83.03 114.05,82.18 113.62,81.25 C113.26,83.31 112.43,84.9 111.13,86.01 L110.4,85.37 C112.01,84.02 112.83,81.86 112.86,78.9 L112.86,78.09 Z M116.19,83.2 C116.95,82.49 117.48,81.67 117.78,80.75 L115.61,80.75 C115.82,80.14 116.05,79.25 116.3,78.09 L113.82,78.09 L113.82,78.9 C113.82,79.08 113.81,79.25 113.81,79.42 C114.17,80.87 114.96,82.13 116.19,83.2 Z" id="爱范儿，让未来触手可及" fill="#FFFFFF"></path>
            </g>
        </g>
    </g>
</svg>