<?xml version="1.0" encoding="UTF-8"?>
<svg width="74px" height="24px" viewBox="0 0 74 24" version="1.1" xmlns="http://www.w3.org/2000/svg" xmlns:xlink="http://www.w3.org/1999/xlink">
    <!-- Generator: Sketch 50.2 (55047) - http://www.bohemiancoding.com/sketch -->
    <title>logo</title>
    <desc>Created with Sketch.</desc>
    <defs>
        <linearGradient x1="38.5631561%" y1="93.6587786%" x2="38.5631559%" y2="0%" id="linearGradient-1">
            <stop stop-color="#000000" stop-opacity="0.3" offset="0%"></stop>
            <stop stop-color="#000000" offset="100%"></stop>
        </linearGradient>
    </defs>
    <g id="Phone" stroke="none" stroke-width="1" fill="none" fill-rule="evenodd">
        <g id="菜单详情页---未登录" transform="translate(-16.000000, -80.000000)">
            <g id="Group-4" transform="translate(0.000000, 64.000000)">
                <g id="logo" transform="translate(16.000000, 16.000000)">
                    <g id="可以做个置顶的动效">
                        <path d="M0,0 L24,0 L24,24 L0,24 L0,0 Z M0.6,0.6 L0.6,23.4 L23.4,23.4 L23.4,0.6 L0.6,0.6 Z" id="Combined-Shape" fill="#3A3A3A" fill-rule="nonzero"></path>
                        <polygon id="Rectangle-2-Copy-2" fill="url(#linearGradient-1)" points="4.28571429 4.28571429 10.2257143 4.28571429 19.7142857 19.7142857 13.7742857 19.7142857"></polygon>
                    </g>
                    <g id="Group-3-Copy-3" transform="translate(32.000000, 4.000000)" fill="#121212">
                        <path d="M0.471649324,15.7963207 L0.471649324,5.1199215 L3.11180233,5.1199215 L3.11180233,15.7963207 L0.471649324,15.7963207 Z M1.79163556,0.06537661 C2.78115133,0.06537661 3.58327112,0.856412227 3.58327112,1.83225427 C3.58327112,2.80809632 2.78115133,3.59930998 1.79163556,3.59930998 C0.802119789,3.59930998 0,2.80809632 0,1.83225427 C0,0.856412227 0.802119789,0.06537661 1.79163556,0.06537661 Z M41.9988874,4.92890144 C41.9985264,5.06901961 42.0021371,7.40616221 41.9979848,7.47684443 C41.2319721,7.42752711 40.6255529,7.50052387 40.6255529,7.50052387 C38.9391696,7.76260004 38.5008291,8.94942053 38.5008291,8.94942053 L38.5008291,15.798475 L35.8606761,15.798475 L35.8606761,5.09715007 L38.5008291,5.09715007 L38.5008291,6.22076605 C39.2106952,5.25418213 40.1848655,5.0624321 40.1848655,5.0624321 C40.7598714,4.89934666 41.5284116,4.93370855 41.9988874,4.92890144 Z M34.5117861,8.81962873 L34.5247847,15.7968727 L31.8932974,15.8007896 L31.8927558,9.66656918 C31.8927558,8.01826674 30.2701016,6.83393883 28.5133094,7.60182913 C27.926027,7.85856407 27.4355117,8.36598057 27.2156193,8.95885669 L27.2156193,15.8020358 L24.5754663,15.8020358 L24.5754663,5.1238562 L27.2154388,5.1238562 L27.2154388,6.0655144 C27.9588845,5.38308372 28.9482197,4.95631974 29.9920767,4.92427238 L30.6243125,4.92427238 C32.8887709,4.95899035 34.366816,6.62972594 34.5117861,8.81962873 Z M12.7094554,5.12401644 L11.1879011,7.55783523 L9.10614479,7.55783523 L9.10614479,15.7963207 L6.46978304,15.7963207 L6.46978304,7.55783523 L4.19395093,7.55783523 L4.19395093,5.1238384 L6.46978304,5.1238384 L6.46978304,5.03339363 L6.46978304,3.88912492 C6.46978304,1.71631405 8.25058646,0 10.4538432,0 L11.9392904,0 L11.9392904,2.49577701 L10.8250245,2.49328444 C9.87955941,2.54153352 9.1254621,3.31120423 9.1254621,4.255355 L9.1254621,5.12401644 L12.7094554,5.12401644 Z M20.3796739,5.1238384 L23.0160357,5.1238384 L23.0160357,15.801662 L20.3796739,15.801662 L20.3796739,15.1829699 C19.6104116,15.618814 18.8097361,15.9814832 17.6557524,15.9992873 C14.5171405,16.0480705 12.0499407,13.5862993 12.1006712,10.4910587 C12.1508601,7.4374796 14.2394767,4.95256308 17.458788,4.92425458 C18.9770927,4.92425458 19.6988741,5.35653783 20.3796739,5.78899912 L20.3796739,5.1238384 Z M17.7462008,13.3822645 C18.9088502,13.3822645 19.9099202,12.700724 20.3796739,11.7166921 L20.3796739,9.20684983 C19.9099202,8.2228179 18.9088502,7.54127743 17.7462008,7.54127743 C16.1336565,7.54127743 14.8263981,8.84880963 14.8263981,10.4616819 C14.8263981,12.0747323 16.1336565,13.3822645 17.7462008,13.3822645 Z" id="Combined-Shape"></path>
                    </g>
                </g>
            </g>
        </g>
    </g>
</svg>